# xmcd
#
# Track frame offsets:
#	150
#	12125
#	24986
#	36142
#	49009
#	61053
#	72971
#	86641
#	100152
#	112411
#	124631
#	136671
#
# Disc length: 2083 seconds
#
# Revision: 1
# Processed by: cddbd v1.5.2PL0 Copyright (c) Steve Scherf et al.
# Submitted via: audiograbber 1.83.01
#
DISCID=9608210c
DTITLE=Tanya Tucker - My Turn
DYEAR=2009
DGENRE=Country
TTITLE0=Wine Me Up
TTITLE1=Lovesick Blues
TTITLE2=Love's Gonna Live Here (With Jim Lauderdale)
TTITLE3=Crazy Arms
TTITLE4=After The Fire Is Gone (Feat. The Grascals)
TTITLE5=Is Anyone Goin' To San Antone (Feat. Flaco Jimenez)
TTITLE6=I Love You A Thousand Ways
TTITLE7=Big, Big Love (Feat. Jo-El Sonnier)
TTITLE8=Walk Through This World With Me
TTITLE9=Oh, Lonesome Me
TTITLE10=You Don't Know Me (Feat. Rhonda Vincent)
TTITLE11=Ramblin' Fever
EXTD=
EXTT0=
EXTT1=
EXTT2=
EXTT3=
EXTT4=
EXTT5=
EXTT6=
EXTT7=
EXTT8=
EXTT9=
EXTT10=
EXTT11=
PLAYORDER=
